<?xml version="1.0" standalone="no"?>
<!DOCTYPE svg PUBLIC "-//W3C//DTD SVG 20010904//EN"
 "http://www.w3.org/TR/2001/REC-SVG-20010904/DTD/svg10.dtd">
<svg version="1.0" xmlns="http://www.w3.org/2000/svg"
 width="100px" height="100px" viewBox="0 0 95.000000 95.000000"
 preserveAspectRatio="xMidYMid meet">
<metadata>
Created by potrace 1.16, written by Peter Selinger 2001-2019
</metadata>
<g transform="translate(0.000000,90.000000) scale(0.070312,-0.070312)"
fill="#fff" stroke="none">
<path d="M56 1074 c-14 -13 -16 -56 -16 -310 l0 -294 330 0 330 0 0 298 c0
218 -3 301 -12 310 -9 9 -93 12 -314 12 -262 0 -305 -2 -318 -16z"/>
<path d="M757 973 c-4 -3 -7 -129 -7 -280 l0 -273 -145 0 -144 0 24 -36 c14
-20 25 -43 25 -50 0 -11 31 -14 155 -14 l155 0 14 33 c49 118 201 125 256 13
l22 -46 84 0 84 0 0 50 c0 49 -1 50 -30 50 l-30 0 0 143 c0 160 1 156 -107
312 -65 95 -87 105 -234 105 -64 0 -119 -3 -122 -7z m287 -168 c25 -36 46 -70
46 -75 0 -6 -53 -10 -125 -10 l-125 0 0 75 0 75 79 0 79 0 46 -65z"/>
<path d="M0 370 l0 -50 114 0 114 0 11 32 c6 17 19 40 28 50 15 17 11 18 -125
18 l-142 0 0 -50z"/>
<path d="M310 403 c-67 -45 -74 -127 -18 -184 24 -24 38 -29 77 -29 86 0 136
69 112 152 -21 68 -113 101 -171 61z"/>
<path d="M914 410 c-38 -15 -64 -59 -64 -107 0 -38 5 -50 34 -79 30 -30 40
-34 84 -34 45 0 53 4 81 35 25 29 31 45 31 81 0 39 -5 51 -34 80 -27 27 -42
34 -72 33 -22 0 -49 -4 -60 -9z"/>
</g>
</svg>
