<?xml version="1.0" standalone="no"?>
<!DOCTYPE svg PUBLIC "-//W3C//DTD SVG 20010904//EN"
 "http://www.w3.org/TR/2001/REC-SVG-20010904/DTD/svg10.dtd">
<svg version="1.0" xmlns="http://www.w3.org/2000/svg"
 width="100px" height="100px" viewBox="0 0 90.000000 90.000000"
 preserveAspectRatio="xMidYMid meet">
<metadata>
Created by potrace 1.16, written by Peter Selinger 2001-2019
</metadata>
<g transform="translate(0.000000,90.000000) scale(0.035156,-0.035156)"
fill="#fff" stroke="none">
<path d="M1760 2396 l0 -83 63 -5 c175 -15 351 -138 433 -304 32 -65 54 -147
54 -201 l0 -43 85 0 85 0 0 53 c0 78 -33 196 -82 290 -59 114 -181 236 -295
295 -94 49 -212 82 -290 82 l-53 0 0 -84z"/>
<path d="M398 2413 l-38 -26 0 -133 0 -134 320 0 320 0 0 134 0 133 -40 27
-40 27 -60 -41 -60 -41 -60 41 -60 41 -60 -41 -60 -41 -59 41 c-33 22 -61 40
-63 39 -2 0 -20 -12 -40 -26z m522 -173 l0 -40 -240 0 -240 0 0 40 0 40 240 0
240 0 0 -40z"/>
<path d="M1760 2076 l0 -86 30 0 c88 0 199 -113 200 -202 l0 -28 86 0 87 0 -6
61 c-15 165 -171 321 -336 336 l-61 6 0 -87z"/>
<path d="M154 2006 l-34 -34 0 -390 c0 -359 1 -394 19 -434 47 -109 54 -175
59 -538 l4 -344 33 -33 33 -33 412 0 412 0 34 34 34 34 0 486 0 486 -480 0
-480 0 0 360 0 360 480 0 480 0 1 -302 c1 -167 5 -286 9 -265 4 21 21 58 39
83 l31 45 0 225 0 226 -34 34 -34 34 -492 0 -492 0 -34 -34z m270 -860 c77
-32 74 -187 -4 -215 -73 -25 -145 -5 -166 45 -17 40 -18 80 -3 124 19 54 102
76 173 46z m640 0 c77 -32 74 -187 -4 -215 -73 -25 -145 -5 -166 45 -17 40
-18 80 -3 124 19 54 102 76 173 46z m-308 -30 c28 -28 34 -42 34 -76 0 -34 -6
-48 -34 -76 -28 -28 -42 -34 -76 -34 -34 0 -48 6 -76 34 -28 28 -34 42 -34 76
0 34 6 48 34 76 28 28 42 34 76 34 34 0 48 -6 76 -34z m324 -556 l0 -280 -400
0 -400 0 0 280 0 280 400 0 400 0 0 -280z"/>
<path d="M280 1600 l0 -280 400 0 400 0 0 280 0 280 -400 0 -400 0 0 -280z
m462 190 c40 -12 88 -61 88 -91 0 -28 -65 -27 -73 1 -5 19 -12 21 -79 18 l-73
-3 0 -35 0 -35 71 -6 c39 -4 80 -12 92 -18 37 -20 62 -61 62 -103 0 -111 -180
-160 -267 -73 -18 18 -33 42 -33 54 0 30 65 31 73 1 5 -19 12 -21 79 -18 l73
3 0 35 0 35 -71 6 c-39 4 -80 12 -92 18 -36 19 -62 61 -62 102 0 88 101 140
212 109z"/>
<path d="M1700 1820 c-13 -13 -20 -33 -20 -60 0 -27 7 -47 20 -60 13 -13 33
-20 60 -20 27 0 47 7 60 20 13 13 20 33 20 60 0 27 -7 47 -20 60 -13 13 -33
20 -60 20 -27 0 -47 -7 -60 -20z"/>
<path d="M1274 1446 c-33 -33 -34 -36 -34 -120 l0 -86 400 0 400 0 0 86 c0 84
-1 87 -34 120 l-34 34 -332 0 -332 0 -34 -34z m566 -86 l0 -40 -120 0 -120 0
0 40 0 40 120 0 120 0 0 -40z"/>
<path d="M1240 760 l0 -400 400 0 400 0 0 321 0 320 -47 -3 -47 -3 -33 -162
-32 -162 35 -35 c28 -28 34 -41 34 -76 0 -34 -6 -48 -34 -76 -28 -28 -42 -34
-76 -34 -34 0 -48 6 -76 34 -28 28 -34 42 -34 75 l0 41 -90 0 -90 0 0 -41 c0
-33 -6 -47 -34 -75 -28 -28 -42 -34 -76 -34 -34 0 -48 6 -76 34 -47 47 -48
100 -2 152 l32 36 -41 124 -41 124 273 0 c252 0 274 1 279 18 3 9 10 45 17 80
l12 62 73 0 74 0 0 40 0 40 -400 0 -400 0 0 -400z"/>
<path d="M1412 828 c3 -7 15 -43 27 -81 l23 -67 176 2 176 3 13 60 c21 105 42
95 -203 95 -169 0 -215 -3 -212 -12z"/>
<path d="M1240 234 c0 -39 5 -51 34 -80 l34 -34 332 0 332 0 34 34 c29 29 34
41 34 80 l0 46 -400 0 -400 0 0 -46z"/>
</g>
</svg>
