<?xml version="1.0" standalone="no"?>
<!DOCTYPE svg PUBLIC "-//W3C//DTD SVG 20010904//EN"
 "http://www.w3.org/TR/2001/REC-SVG-20010904/DTD/svg10.dtd">
<svg version="1.0" xmlns="http://www.w3.org/2000/svg"
 width="100px" height="100px" viewBox="0 0 1190.000000 1265.000000"
 preserveAspectRatio="xMidYMid meet">
<metadata>
Created by potrace 1.15, written by Peter Selinger 2001-2017
</metadata>
<g transform="translate(0.000000,1138.000000) scale(0.100000,-0.100000)"
fill="#fff" stroke="none">
<path d="M6129 11366 l-126 -11 -35 -37 -34 -37 -135 1 c-102 0 -159 -5 -239
-22 -133 -28 -323 -89 -420 -135 -145 -70 -174 -129 -106 -218 69 -91 71 -97
71 -262 0 -138 2 -153 23 -186 52 -84 129 -137 400 -273 83 -43 152 -80 152
-84 0 -4 -25 -22 -56 -41 -101 -60 -145 -166 -106 -252 23 -52 50 -78 117
-112 l50 -26 -35 0 c-38 -1 -144 22 -315 68 -216 57 -376 59 -493 6 -67 -31
-114 -71 -172 -149 -70 -93 -105 -106 -309 -117 -189 -9 -302 -27 -446 -69
-182 -54 -366 -82 -704 -105 -352 -24 -494 -50 -616 -110 -97 -47 -118 -49
-200 -19 -132 48 -289 42 -426 -17 -53 -23 -119 -88 -119 -118 0 -39 -26 -46
-179 -46 -128 0 -151 -3 -185 -21 -59 -31 -79 -64 -84 -138 -10 -153 57 -191
378 -216 139 -11 202 -21 226 -37 24 -17 36 -59 41 -149 9 -151 -25 -369 -104
-654 -80 -293 -189 -751 -328 -1380 -135 -613 -182 -803 -361 -1465 -260 -958
-386 -1400 -440 -1539 -19 -48 -37 -105 -40 -126 -7 -44 -24 -56 -145 -98
-173 -61 -325 -88 -391 -71 -83 23 -214 -19 -232 -73 -37 -106 172 -315 475
-477 236 -126 336 -143 950 -162 341 -10 578 -8 1953 12 l708 11 206 153 c219
164 388 271 462 293 78 23 129 50 176 94 56 51 74 85 74 136 0 55 -37 102
-161 204 -140 114 -215 197 -230 251 -6 23 -33 71 -59 107 -88 119 -266 445
-491 895 -82 165 -155 308 -163 317 -23 31 -67 48 -90 36 -30 -16 -36 -28 -36
-77 0 -88 71 -279 255 -686 168 -372 226 -512 245 -598 17 -72 54 -160 100
-237 21 -36 42 -77 45 -92 6 -24 4 -27 -27 -32 -55 -9 -459 -26 -873 -36 -712
-18 -1586 -32 -1592 -26 -4 3 3 50 15 103 49 226 78 500 182 1718 12 132 43
483 70 780 71 782 89 1020 110 1465 10 221 27 389 40 403 10 11 324 -623 690
-1393 358 -752 378 -793 483 -978 85 -150 170 -256 212 -264 13 -3 34 2 46 10
20 14 21 21 16 86 -10 125 -43 205 -360 861 -369 765 -717 1557 -753 1714 -18
78 -51 139 -110 202 -77 83 -141 242 -188 468 l-24 113 26 25 c35 32 97 63
197 98 114 40 184 77 228 123 34 35 40 47 47 110 11 82 22 103 70 137 60 41
143 59 265 59 120 -1 170 -10 315 -56 122 -40 224 -91 276 -138 50 -46 125
-65 318 -80 164 -13 714 -13 871 0 239 20 313 44 450 151 115 89 129 89 210
-9 82 -99 104 -183 125 -487 11 -151 23 -955 40 -2525 11 -973 31 -1784 50
-1963 31 -293 -10 -1166 -76 -1627 -45 -318 -64 -375 -224 -700 -221 -446
-350 -665 -451 -768 -84 -86 -115 -100 -319 -138 -196 -36 -259 -120 -291
-383 -14 -113 -4 -172 31 -191 52 -28 319 -34 1335 -34 1310 0 1962 20 2044
63 56 28 75 62 79 140 6 104 -52 308 -105 372 -45 52 -74 61 -212 63 -111 1
-131 4 -170 25 -138 73 -244 236 -401 617 -92 223 -190 406 -270 508 -39 49
-87 117 -106 153 l-36 64 -8 222 c-33 874 -49 5244 -22 5872 19 426 38 577 85
670 15 31 99 142 157 208 4 5 63 -28 131 -73 152 -101 219 -135 318 -163 72
-21 96 -22 446 -21 352 0 493 7 685 36 104 15 139 34 155 81 18 52 36 70 113
110 129 67 275 97 474 97 202 -1 238 -18 238 -114 0 -180 110 -276 335 -291
139 -10 145 -12 162 -53 31 -74 -7 -263 -133 -657 -51 -158 -120 -361 -336
-980 -466 -1336 -515 -1472 -632 -1747 -36 -86 -82 -197 -100 -245 -19 -48
-86 -223 -149 -388 -136 -355 -239 -606 -347 -840 -95 -208 -122 -283 -123
-356 -2 -66 11 -96 57 -127 40 -28 76 -28 110 -1 30 24 101 166 171 344 40
102 868 2307 1162 3095 246 658 418 1183 430 1313 3 31 9 57 13 57 15 0 54
-109 91 -257 44 -175 120 -560 214 -1088 82 -459 166 -906 204 -1090 192 -916
332 -1809 335 -2130 2 -219 -7 -230 -214 -260 -208 -31 -435 -39 -1625 -56
-829 -11 -1028 -24 -1102 -69 -90 -54 -14 -171 166 -256 156 -75 301 -159 505
-294 l193 -128 389 9 c214 4 623 13 909 19 1345 27 1644 45 1880 112 219 62
785 448 785 536 0 38 -25 54 -126 78 -54 13 -182 38 -284 54 -454 73 -452 72
-520 293 -66 212 -110 324 -156 394 -32 49 -45 79 -50 122 -15 126 -105 410
-396 1251 -220 635 -300 876 -342 1025 -14 50 -67 225 -119 390 -233 738 -356
1199 -417 1564 -24 143 -28 384 -6 435 18 42 39 50 236 81 262 43 310 64 310
138 0 70 -72 176 -145 215 -34 18 -116 21 -215 8 -90 -11 -135 3 -217 69 -37
30 -93 64 -123 76 -125 47 -263 32 -336 -36 -20 -19 -42 -35 -48 -35 -7 0 -33
13 -58 29 -112 71 -308 105 -893 156 -279 24 -504 53 -589 76 -23 6 -52 22
-66 35 -36 33 -108 45 -194 33 -105 -16 -198 15 -316 106 -77 60 -152 100
-240 127 -62 19 -97 23 -200 23 -133 0 -169 -7 -345 -61 -61 -19 -133 -36
-160 -40 l-50 -6 39 24 c50 29 77 66 85 115 15 86 -35 169 -126 209 -29 13
-53 28 -53 33 0 14 81 91 114 108 17 9 62 22 100 29 37 8 89 26 114 40 101 60
197 190 248 339 26 74 28 93 31 270 2 105 0 210 -4 235 l-8 44 -150 23 c-310
47 -467 75 -573 103 -118 31 -201 65 -209 87 -6 15 -32 15 -214 -1z m-131
-748 c-3 -107 -10 -205 -16 -220 -11 -27 -12 -27 -50 -14 -101 36 -237 120
-270 167 -13 19 -11 25 39 76 90 91 273 213 293 193 4 -4 6 -95 4 -202z m456
181 c112 -57 256 -181 256 -221 0 -25 -63 -88 -134 -133 -54 -34 -237 -128
-240 -123 -1 2 2 104 5 228 6 218 15 280 40 280 6 0 39 -14 73 -31z m1316
-1575 c0 -54 -65 -84 -201 -91 -99 -6 -223 10 -236 29 -4 7 6 8 28 4 96 -18
167 -18 220 -1 30 10 67 27 82 37 49 35 107 47 107 22z m-2742 -75 c34 -6 62
-15 62 -19 0 -16 -147 -62 -217 -67 -85 -7 -144 11 -200 61 l-36 31 24 7 c32
10 287 1 367 -13z m1302 -642 c0 -46 -23 -76 -47 -61 -27 17 -27 41 1 69 34
34 46 32 46 -8z m-11 -972 c6 -247 13 -857 16 -1355 6 -816 17 -1569 29 -1961
4 -120 3 -130 -4 -59 -16 167 -30 843 -41 1980 -5 635 -14 1241 -19 1345 -11
234 -11 597 0 540 5 -22 13 -242 19 -490z m-4321 -847 c-27 -812 -204 -2811
-299 -3376 -28 -163 -31 -172 -63 -196 -57 -43 -450 -19 -573 34 -24 11 -43
22 -43 25 0 14 24 52 51 80 50 54 79 152 124 410 63 364 223 1011 494 2004
197 717 301 1141 301 1226 0 17 4 25 8 18 4 -6 4 -107 0 -225z m8856 -898 c30
-85 136 -409 235 -720 188 -590 250 -776 424 -1276 58 -165 115 -336 127 -378
21 -75 21 -78 3 -98 -49 -56 -171 -75 -248 -39 -91 42 -177 155 -215 281 -11
36 -34 160 -50 275 -59 405 -132 820 -305 1731 -58 304 -105 558 -104 565 0
19 68 -154 133 -341z m-4460 -1843 c4 -19 3 -26 -4 -22 -5 3 -10 18 -10 32 0
32 5 28 14 -10z m4729 -691 c7 -18 -12 -36 -39 -36 -23 0 -34 16 -26 38 6 16
59 15 65 -2z m-6420 -127 c44 -12 49 -42 7 -47 -34 -3 -99 36 -79 49 18 11 26
11 72 -2z m1253 -1624 c12 -32 15 -59 10 -93 -7 -55 -72 -192 -115 -242 l-29
-35 34 70 c57 116 63 219 20 304 -18 34 -13 41 30 41 29 0 34 -4 50 -45z"/>
</g>
</svg>
